REM MD5 08634335f495b8900976467210fd9b5f
FILE "Batman & Robin (Italy).bin" BINARY
  TRACK 01 MODE2/2352
    INDEX 01 00:00:00
  TRACK 02 AUDIO
    INDEX 00 46:05:31
    INDEX 01 46:07:31
  TRACK 03 AUDIO
    INDEX 00 47:26:10
    INDEX 01 47:28:10
REM LEADOUT 50:28:35
